<svg width="83" height="94" viewBox="0 0 83 94" fill="none" xmlns="http://www.w3.org/2000/svg">
<path d="M15.125 1.26416V11.3653H1V21.2549C1 37.8082 4.875 47.0367 14.1875 52.7748C17.6496 55.1374 20.845 58.0814 23.6875 61.5274C25.9722 64.6205 28.7585 67.0474 31.8542 68.6405L35.375 70.0155V81.9941H30C23.5 81.9941 21.3125 83.8716 21.3125 89.451V93.2059H61.9375V89.8477C61.9375 84.374 59.2708 81.9148 53.1042 81.9148H47.875V70.0155L51.4583 68.667C54.5585 67.0721 57.3459 64.6352 59.625 61.5274C62.5904 57.94 65.9097 54.8557 69.5 52.3517C72.2877 50.649 74.7773 48.2523 76.8209 45.3042C78.8644 42.3561 80.4202 38.9167 81.3958 35.1903C82.0591 30.5765 82.3661 25.8916 82.3125 21.2021V11.3918H68.125V1.26416H15.125ZM41.625 18.1082L45.8958 29.32H56.1875L48.125 38.7601L50.4375 50.818L41.625 44.8155L32.8125 50.8974L35.125 38.8394L27.0417 29.3993H37.3542L41.625 18.1082ZM8.41667 21.4665H15V42.3034C14.3125 42.8323 12.1667 39.6592 10.6042 36.0365C9.71708 33.263 9.14877 30.342 8.91667 27.3632L8.41667 21.4665ZM68.25 21.4665H75.4167L74.8125 27.2839C74.6705 32.1266 73.1364 36.7357 70.5 40.2409C69.8797 41.3137 69.0927 42.2137 68.1875 42.8852L68.25 21.4665Z" stroke="black" stroke-linecap="round" stroke-linejoin="round"/>
</svg>
