<svg width="32" height="84" viewBox="0 0 32 84" fill="none" xmlns="http://www.w3.org/2000/svg">
<path d="M9.05875 51.4071C8.47647 45.4426 13.9715 40.5599 20.0309 40.5599C26.0902 40.5599 31 45.4737 31 51.4071C31 54.2784 30.1393 65.4394 14.8532 64.9199C7.98848 64.3752 2.21053 59.3712 1.23606 51.8497C0.486126 46.0524 1.26899 41.0306 7.33734 35.032C13.4057 29.0319 15.1555 28.6738 21.2897 20.3086C27.424 11.9434 25.1562 6.55754 24.8433 5.49487C24.5305 4.43221 22.4379 1 18.5564 1C14.6735 1 12.8024 5.09822 12.2965 6.79139C11.7891 8.48603 11.2083 11.8901 12.1558 18.4511C12.8668 23.3649 24.2147 66.2416 25.6023 72.625C25.737 73.2377 25.8388 73.8564 25.8956 74.475C25.9001 74.5194 25.9376 75.6072 25.9376 75.6072C25.9365 76.6451 25.7147 77.6711 25.2865 78.6187C24.8583 79.5662 24.2333 80.4142 23.4521 81.1074C22.6708 81.8005 21.7509 82.3235 20.752 82.6423C19.7531 82.9611 18.6975 83.0685 17.6538 82.9577C16.6102 82.8468 15.6018 82.5202 14.6941 81.9989C13.7864 81.4776 12.9998 80.7734 12.3853 79.932C11.7708 79.0906 11.3422 78.1308 11.1273 77.1149C10.9124 76.099 10.916 75.0498 11.1379 74.0354C11.1379 74.0354 11.6199 72.3941 12.4821 72.1247" stroke="white" stroke-width="2" stroke-miterlimit="10" stroke-linecap="round" stroke-linejoin="round"/>
</svg>
