<svg width="46" height="46" viewBox="0 0 46 46" fill="none" xmlns="http://www.w3.org/2000/svg">
<path d="M34.748 0.988281L28.5664 1.28125L3.99902 20.5488L29.5332 15.5195C30.0996 15.0703 30.5977 14.6406 31.0371 14.2402L27.4922 5.38281L29.0059 4.77734L32.2969 13C37.6777 7.12109 30.3047 6.05664 34.748 0.988281ZM32.8633 14.4062L31.5742 15.5684L32.5117 17.9219C31.623 17.8828 30.6367 17.8633 29.5332 17.8535L3.99902 22.8926C3.99902 22.8926 4.03223 23.1074 4.08105 23.4297C4.31152 24.9434 3.32617 26.3789 1.82812 26.7109C0.956055 26.9063 0.206055 27.0723 0.206055 27.0723L0.591797 29.1426L33.2246 32.1211L45.5293 26.8574L45.4414 22.6191C37.5215 21.7695 44.3281 18.7715 34.3086 18.0293L32.8633 14.4062ZM6.18164 25.8125L33 27.9805L31.2324 29.5527L3.82227 27.0234L6.18164 25.8125ZM6.0498 31.0469L7.38281 40.5293L7.04395 41.1348L7.0791 42.6777L8.75195 42.834L10.4219 42.2285V40.9395L9.95312 40.5586L10.8418 31.4766L6.0498 31.0469ZM15.9688 32.2285V39.6016L26.2422 40.4805V33.1367L24.6113 32.9902V38.7227L17.5996 38.1367V32.375L15.9688 32.2285ZM36.457 32.4922L33.5859 33.5566L31.1641 33.3613L32.6875 43.0684L32.3066 43.5664L32.3848 45.3242L34.0547 45.4902L35.6074 44.7676L35.6367 43.4785L35.2559 43.0977L36.457 32.4922ZM16.0762 41.2422L13.3027 42.1699L13.6055 43.5762L23.5957 44.5625L25.6465 43.8398L25.7539 42.0527L16.0762 41.2422Z" fill="#FBD611"/>
</svg>
