<svg width="37" height="37" viewBox="0 0 37 37" fill="none" xmlns="http://www.w3.org/2000/svg">
<path d="M10.36 2.95277C6.2816 2.95277 2.95999 6.27439 2.95999 10.3528V26.6328C2.95999 30.7112 6.2816 34.0328 10.36 34.0328H26.64C30.7184 34.0328 34.04 30.7112 34.04 26.6328V10.3528C34.04 6.27439 30.7184 2.95277 26.64 2.95277H10.36ZM10.36 4.43277H26.64C29.9187 4.43277 32.56 7.07408 32.56 10.3528V26.6328C32.56 29.9115 29.9187 32.5528 26.64 32.5528H10.36C7.0813 32.5528 4.43999 29.9115 4.43999 26.6328V10.3528C4.43999 7.07408 7.0813 4.43277 10.36 4.43277ZM13.3561 8.16602C11.8426 8.10062 10.6938 8.6757 9.9712 9.36707C9.60989 9.71275 9.34903 10.0826 9.1705 10.4279C8.99197 10.7732 8.87855 11.0579 8.87855 11.4281C8.87855 11.3951 8.87042 11.5682 8.86554 11.7692C8.86065 11.9702 8.86154 12.2411 8.87999 12.5684C8.91696 13.2231 9.02792 14.1086 9.32226 15.1584C9.91094 17.2581 11.2365 20.0124 14.112 22.888C16.9876 25.7635 19.7417 27.0889 21.8416 27.6777C22.8915 27.9722 23.7768 28.083 24.4316 28.12C24.7589 28.1385 25.0283 28.1393 25.2294 28.1345C25.4304 28.1296 25.6048 28.1214 25.5719 28.1214C25.9421 28.1214 26.2268 28.008 26.5721 27.8295C26.9174 27.651 27.2872 27.3901 27.6329 27.0288C28.3243 26.3062 28.8994 25.1574 28.834 23.6439C28.8029 22.922 28.4022 22.2828 27.8107 21.9037C27.3536 21.6108 26.644 21.1562 25.7179 20.5639C24.6433 19.8774 23.2689 19.8283 22.148 20.4425L22.2116 20.4107L21.34 20.785L21.2764 20.8298C21.0646 20.9786 20.8022 21.0061 20.5639 20.9064C19.8962 20.6272 18.8559 20.0787 17.8886 19.1114C16.9213 18.1441 16.3728 17.1038 16.0935 16.4361C15.9939 16.1977 16.0214 15.9354 16.1701 15.7236L16.215 15.66L16.5893 14.7884L16.5575 14.852C17.1715 13.7313 17.1238 12.357 16.4361 11.2821C15.8438 10.356 15.3892 9.64638 15.0963 9.1893C14.7172 8.59783 14.078 8.19705 13.3561 8.16602ZM13.2925 9.64457C13.5001 9.6535 13.7144 9.77494 13.8504 9.98711C14.1436 10.4447 14.5985 11.1546 15.1902 12.0799C15.5829 12.6937 15.6105 13.5004 15.2596 14.1409L15.2423 14.1727L14.8853 15.0067L14.959 14.8723C14.5216 15.4952 14.4337 16.3041 14.7277 17.007C15.0612 17.8045 15.699 19.0146 16.8422 20.1578C17.9854 21.301 19.1955 21.9388 19.993 22.2723C20.6959 22.5663 21.5048 22.4784 22.1277 22.041L21.9933 22.1147L22.8273 21.7577L22.8591 21.7404C23.4993 21.3896 24.3059 21.4188 24.9201 21.8112V21.8098C25.8454 22.4015 26.5553 22.8564 27.0129 23.1496C27.2251 23.2855 27.3465 23.4999 27.3554 23.7075C27.404 24.8313 27.0137 25.5349 26.5634 26.0055C26.3383 26.2408 26.0941 26.4116 25.8928 26.5157C25.6914 26.6198 25.4988 26.6414 25.5719 26.6414C25.4362 26.6414 25.3647 26.6503 25.1947 26.6545C25.0247 26.6586 24.7968 26.6588 24.5154 26.6429C23.9526 26.611 23.1759 26.515 22.2405 26.2527C20.3696 25.728 17.8617 24.5449 15.1584 21.8416C12.4551 19.1382 11.2718 16.6301 10.7473 14.7595C10.4851 13.8242 10.3889 13.0473 10.3571 12.4846C10.3412 12.2033 10.3414 11.9753 10.3455 11.8053C10.3497 11.6353 10.3585 11.5639 10.3585 11.4281C10.3585 11.5012 10.3802 11.3086 10.4843 11.1072C10.5884 10.9059 10.7592 10.6617 10.9945 10.4366C11.4651 9.98633 12.1687 9.59601 13.2925 9.64457Z" fill="white"/>
</svg>
