<svg width="98" height="92" viewBox="0 0 98 92" fill="none" xmlns="http://www.w3.org/2000/svg">
<path d="M89.6341 0.000469212H51.3902C50.4413 0.000469212 49.6215 0.401388 49 1.06762C48.3354 0.364281 47.4854 -0.0152462 46.6098 0.000469212H8.36585C6.28873 0.000469212 4.78049 1.86062 4.78049 4.42237V86.9645C4.78049 89.5263 6.28873 91.3864 8.36585 91.3864H46.6098C47.5587 91.3864 48.3785 90.9855 49 90.3193C49.6215 90.9855 50.4413 91.3864 51.3902 91.3864H89.6341C91.7113 91.3864 93.2195 89.5263 93.2195 86.9645V4.42237C93.2195 1.86062 91.7113 0.000469212 89.6341 0.000469212ZM46.6098 88.4385H8.36585C7.61771 88.4385 7.17073 87.8872 7.17073 86.9645V4.42237C7.17073 3.49967 7.61771 2.9484 8.36585 2.9484H46.6098C47.3579 2.9484 47.8049 3.49967 47.8049 4.42237V86.9645C47.8049 87.8872 47.3579 88.4385 46.6098 88.4385ZM90.8293 86.9645C90.8293 87.8872 90.3823 88.4385 89.6341 88.4385H51.3902C50.6421 88.4385 50.1951 87.8872 50.1951 86.9645V4.42237C50.1951 3.49967 50.6421 2.9484 51.3902 2.9484H89.6341C90.3823 2.9484 90.8293 3.49967 90.8293 4.42237V86.9645ZM96.8049 5.89634C96.4879 5.89634 96.1839 6.05163 95.9598 6.32805C95.7357 6.60448 95.6098 6.97939 95.6098 7.37031V84.0166C95.6098 84.4075 95.7357 84.7824 95.9598 85.0589C96.1839 85.3353 96.4879 85.4906 96.8049 85.4906C97.1218 85.4906 97.4258 85.3353 97.65 85.0589C97.8741 84.7824 98 84.4075 98 84.0166V7.37031C98 6.97939 97.8741 6.60448 97.65 6.32805C97.4258 6.05163 97.1218 5.89634 96.8049 5.89634ZM1.19512 85.4906C1.51209 85.4906 1.81607 85.3353 2.0402 85.0589C2.26433 84.7824 2.39024 84.4075 2.39024 84.0166V7.37031C2.39024 6.97939 2.26433 6.60448 2.0402 6.32805C1.81607 6.05163 1.51209 5.89634 1.19512 5.89634C0.878156 5.89634 0.574172 6.05163 0.350043 6.32805C0.125914 6.60448 0 6.97939 0 7.37031L0 84.0166C0 84.4075 0.125914 84.7824 0.350043 85.0589C0.574172 85.3353 0.878156 85.4906 1.19512 85.4906Z" fill="black"/>
<path d="M41.8292 26.5319H13.1463C12.8293 26.5319 12.5253 26.6872 12.3012 26.9636C12.0771 27.24 11.9512 27.6149 11.9512 28.0058C11.9512 28.3968 12.0771 28.7717 12.3012 29.0481C12.5253 29.3245 12.8293 29.4798 13.1463 29.4798H41.8292C42.1462 29.4798 42.4502 29.3245 42.6743 29.0481C42.8984 28.7717 43.0243 28.3968 43.0243 28.0058C43.0243 27.6149 42.8984 27.24 42.6743 26.9636C42.4502 26.6872 42.1462 26.5319 41.8292 26.5319ZM41.8292 38.3236H13.1463C12.8293 38.3236 12.5253 38.4789 12.3012 38.7553C12.0771 39.0318 11.9512 39.4067 11.9512 39.7976C11.9512 40.1885 12.0771 40.5634 12.3012 40.8398C12.5253 41.1163 12.8293 41.2716 13.1463 41.2716H41.8292C42.1462 41.2716 42.4502 41.1163 42.6743 40.8398C42.8984 40.5634 43.0243 40.1885 43.0243 39.7976C43.0243 39.4067 42.8984 39.0318 42.6743 38.7553C42.4502 38.4789 42.1462 38.3236 41.8292 38.3236ZM41.8292 14.7401H13.1463C12.8293 14.7401 12.5253 14.8954 12.3012 15.1719C12.0771 15.4483 11.9512 15.8232 11.9512 16.2141C11.9512 16.605 12.0771 16.9799 12.3012 17.2564C12.5253 17.5328 12.8293 17.6881 13.1463 17.6881H41.8292C42.1462 17.6881 42.4502 17.5328 42.6743 17.2564C42.8984 16.9799 43.0243 16.605 43.0243 16.2141C43.0243 15.8232 42.8984 15.4483 42.6743 15.1719C42.4502 14.8954 42.1462 14.7401 41.8292 14.7401ZM41.8292 50.1154H13.1463C12.8293 50.1154 12.5253 50.2707 12.3012 50.5471C12.0771 50.8235 11.9512 51.1984 11.9512 51.5893C11.9512 51.9802 12.0771 52.3552 12.3012 52.6316C12.5253 52.908 12.8293 53.0633 13.1463 53.0633H41.8292C42.1462 53.0633 42.4502 52.908 42.6743 52.6316C42.8984 52.3552 43.0243 51.9802 43.0243 51.5893C43.0243 51.1984 42.8984 50.8235 42.6743 50.5471C42.4502 50.2707 42.1462 50.1154 41.8292 50.1154ZM41.8292 61.9071H13.1463C12.8293 61.9071 12.5253 62.0624 12.3012 62.3388C12.0771 62.6152 11.9512 62.9901 11.9512 63.3811C11.9512 63.772 12.0771 64.1469 12.3012 64.4233C12.5253 64.6997 12.8293 64.855 13.1463 64.855H41.8292C42.1462 64.855 42.4502 64.6997 42.6743 64.4233C42.8984 64.1469 43.0243 63.772 43.0243 63.3811C43.0243 62.9901 42.8984 62.6152 42.6743 62.3388C42.4502 62.0624 42.1462 61.9071 41.8292 61.9071ZM41.8292 73.6988H13.1463C12.8293 73.6988 12.5253 73.8541 12.3012 74.1306C12.0771 74.407 11.9512 74.7819 11.9512 75.1728C11.9512 75.5637 12.0771 75.9386 12.3012 76.2151C12.5253 76.4915 12.8293 76.6468 13.1463 76.6468H41.8292C42.1462 76.6468 42.4502 76.4915 42.6743 76.2151C42.8984 75.9386 43.0243 75.5637 43.0243 75.1728C43.0243 74.7819 42.8984 74.407 42.6743 74.1306C42.4502 73.8541 42.1462 73.6988 41.8292 73.6988ZM84.8536 26.5319H56.1707C55.8537 26.5319 55.5497 26.6872 55.3256 26.9636C55.1015 27.24 54.9756 27.6149 54.9756 28.0058C54.9756 28.3968 55.1015 28.7717 55.3256 29.0481C55.5497 29.3245 55.8537 29.4798 56.1707 29.4798H84.8536C85.1706 29.4798 85.4746 29.3245 85.6987 29.0481C85.9228 28.7717 86.0487 28.3968 86.0487 28.0058C86.0487 27.6149 85.9228 27.24 85.6987 26.9636C85.4746 26.6872 85.1706 26.5319 84.8536 26.5319ZM84.8536 38.3236H56.1707C55.8537 38.3236 55.5497 38.4789 55.3256 38.7553C55.1015 39.0318 54.9756 39.4067 54.9756 39.7976C54.9756 40.1885 55.1015 40.5634 55.3256 40.8398C55.5497 41.1163 55.8537 41.2716 56.1707 41.2716H84.8536C85.1706 41.2716 85.4746 41.1163 85.6987 40.8398C85.9228 40.5634 86.0487 40.1885 86.0487 39.7976C86.0487 39.4067 85.9228 39.0318 85.6987 38.7553C85.4746 38.4789 85.1706 38.3236 84.8536 38.3236ZM84.8536 14.7401H56.1707C55.8537 14.7401 55.5497 14.8954 55.3256 15.1719C55.1015 15.4483 54.9756 15.8232 54.9756 16.2141C54.9756 16.605 55.1015 16.9799 55.3256 17.2564C55.5497 17.5328 55.8537 17.6881 56.1707 17.6881H84.8536C85.1706 17.6881 85.4746 17.5328 85.6987 17.2564C85.9228 16.9799 86.0487 16.605 86.0487 16.2141C86.0487 15.8232 85.9228 15.4483 85.6987 15.1719C85.4746 14.8954 85.1706 14.7401 84.8536 14.7401ZM84.8536 50.1154H56.1707C55.8537 50.1154 55.5497 50.2707 55.3256 50.5471C55.1015 50.8235 54.9756 51.1984 54.9756 51.5893C54.9756 51.9802 55.1015 52.3552 55.3256 52.6316C55.5497 52.908 55.8537 53.0633 56.1707 53.0633H84.8536C85.1706 53.0633 85.4746 52.908 85.6987 52.6316C85.9228 52.3552 86.0487 51.9802 86.0487 51.5893C86.0487 51.1984 85.9228 50.8235 85.6987 50.5471C85.4746 50.2707 85.1706 50.1154 84.8536 50.1154ZM84.8536 61.9071H56.1707C55.8537 61.9071 55.5497 62.0624 55.3256 62.3388C55.1015 62.6152 54.9756 62.9901 54.9756 63.3811C54.9756 63.772 55.1015 64.1469 55.3256 64.4233C55.5497 64.6997 55.8537 64.855 56.1707 64.855H84.8536C85.1706 64.855 85.4746 64.6997 85.6987 64.4233C85.9228 64.1469 86.0487 63.772 86.0487 63.3811C86.0487 62.9901 85.9228 62.6152 85.6987 62.3388C85.4746 62.0624 85.1706 61.9071 84.8536 61.9071ZM84.8536 73.6988H56.1707C55.8537 73.6988 55.5497 73.8541 55.3256 74.1306C55.1015 74.407 54.9756 74.7819 54.9756 75.1728C54.9756 75.5637 55.1015 75.9386 55.3256 76.2151C55.5497 76.4915 55.8537 76.6468 56.1707 76.6468H84.8536C85.1706 76.6468 85.4746 76.4915 85.6987 76.2151C85.9228 75.9386 86.0487 75.5637 86.0487 75.1728C86.0487 74.7819 85.9228 74.407 85.6987 74.1306C85.4746 73.8541 85.1706 73.6988 84.8536 73.6988Z" fill="black"/>
</svg>
