<svg width="20" height="20" viewBox="0 0 20 20" fill="none" xmlns="http://www.w3.org/2000/svg">
<path d="M19.4716 0.374095C19.2663 0.18686 19.0187 0.0642414 18.7551 0.0192392C18.4915 -0.025763 18.2218 0.00852858 17.9745 0.118478L0.91095 7.69583C0.635211 7.82048 0.400457 8.03442 0.237851 8.30927C0.0752446 8.58412 -0.00752238 8.90687 0.000537366 9.23468C0.00859711 9.56248 0.107102 9.87984 0.282976 10.1446C0.45885 10.4094 0.703774 10.6091 0.985234 10.7171L4.66709 12.123L6.6623 19.3788C6.66611 19.3934 6.67849 19.4029 6.6842 19.4165C6.70476 19.4744 6.73478 19.5276 6.77277 19.5736C6.8305 19.6445 6.90502 19.6964 6.98801 19.7234C6.99753 19.7276 7.0042 19.7371 7.01372 19.7391H7.01944L7.02229 19.7402C7.09597 19.7576 7.17254 19.7533 7.24419 19.7276C7.25181 19.7255 7.25943 19.7255 7.268 19.7224C7.33681 19.6958 7.39907 19.6521 7.44991 19.5946C7.45562 19.5872 7.46514 19.5862 7.47086 19.5799L10.3403 16.0956L14.5279 19.6627C14.7822 19.8816 15.0955 20 15.4184 20C16.1174 20 16.7203 19.4615 16.8641 18.7104L19.9707 1.92979C20.0234 1.64492 20.0048 1.34966 19.9169 1.0755C19.829 0.801332 19.6751 0.558551 19.4716 0.373047V0.374095ZM7.70324 13.5006L7.02991 17.1013L5.62517 11.991L12.5917 7.99964L7.83276 13.2356C7.76686 13.308 7.72181 13.4002 7.70324 13.5006ZM15.9307 18.4998C15.9129 18.5948 15.8731 18.6832 15.8152 18.7564C15.7573 18.8296 15.6833 18.8852 15.6003 18.9178C15.5192 18.9521 15.4315 18.9626 15.3457 18.9483C15.2598 18.934 15.1789 18.8953 15.1108 18.8361L10.5746 14.9715C10.4798 14.891 10.3609 14.8527 10.2415 14.8644C10.1222 14.876 10.0113 14.9367 9.93082 15.0343L7.93371 17.4554L8.60608 13.8652L15.4527 6.33289C15.5328 6.24441 15.5816 6.12731 15.5902 6.00273C15.5988 5.87815 15.5666 5.7543 15.4995 5.65352C15.4324 5.55274 15.3347 5.48168 15.2241 5.45315C15.1135 5.42462 14.9973 5.44051 14.8965 5.49795L5.02708 11.1529L1.29666 9.7261C1.19775 9.69017 1.11148 9.62122 1.04986 9.52884C0.988242 9.43646 0.954333 9.32524 0.952854 9.21068C0.948109 9.09509 0.976182 8.98075 1.03318 8.88351C1.09018 8.78627 1.17328 8.71096 1.27094 8.66801L18.3317 1.09066C18.4191 1.0498 18.5151 1.03658 18.609 1.0525C18.7029 1.06842 18.7909 1.11283 18.8631 1.18075C18.9349 1.24465 18.9891 1.32923 19.0197 1.42505C19.0503 1.52088 19.0561 1.62418 19.0364 1.72342L15.9307 18.5009V18.4998Z" fill="white"/>
</svg>
