<svg width="20" height="20" viewBox="0 0 20 20" fill="none" xmlns="http://www.w3.org/2000/svg">
<g clip-path="url(#clip0_7_70)">
<path d="M12.8374 0.5H7.1812C1.8808 0.5 0.508801 1.8698 0.508801 7.162V12.818C0.258801 20.9636 5.3402 19.2698 11.46 19.49C11.8244 19.4802 11.8236 18.9452 11.46 18.9368H7.1716C2.1468 18.9368 1.062 17.8502 1.062 12.8182V7.162C1.062 2.1378 2.1486 1.053 7.1812 1.053C19.693 0.9936 19.0032 0.3188 18.9468 12.8276C18.9468 17.852 17.8602 18.9366 12.8278 18.9366C12.4642 18.9402 12.4652 19.4854 12.8278 19.4898C18.1282 19.4898 19.5 18.12 19.5 12.8276V7.1718C19.5 1.8718 18.1302 0.5 12.8374 0.5Z" fill="white"/>
<path d="M11.3996 12.0191C11.7082 11.9439 12.8574 13.0847 13.1736 13.4785C13.5826 13.9337 13.8294 14.2085 14.3094 14.2085H15.654C16.0284 14.2085 16.2164 14.0603 16.3082 13.9361C16.7078 13.2923 15.9838 12.5551 15.1932 11.6121C14.9214 11.2605 14.3884 10.8749 14.206 10.5311C15.1614 8.96207 17.2572 6.41467 15.462 6.35767H14.1176C13.8422 6.35767 13.4728 6.45347 13.2756 6.91367C13.269 6.93007 12.5998 8.55347 11.6844 9.56927C11.4216 9.81347 11.2988 9.97147 11.321 9.79367V8.06027C11.316 7.69867 10.7738 7.69547 10.7678 8.06027V9.79367C10.7678 10.2475 11.0206 10.4543 11.2556 10.4543C12.4414 10.3523 13.8152 7.05147 13.7858 7.12747C13.8444 6.99047 13.9176 6.91107 14.1174 6.91107H15.4618C15.5682 6.91107 15.6178 6.93027 15.6174 6.92367C15.62 6.93247 15.6222 6.97147 15.6002 7.04487C15.615 7.14607 15.1626 8.18227 13.8288 10.0753C13.2332 10.8069 14.3364 11.4045 14.7744 11.9741C15.0798 12.3371 16.3668 13.7387 15.654 13.6559H14.3094C14.086 13.6559 13.9662 13.5337 13.585 13.1093C12.9988 12.4117 11.8954 11.3821 11.3996 11.4667C10.8444 11.4667 10.7678 11.8211 10.7678 12.2041V13.4139C10.7678 13.5595 10.7678 13.6559 10.0842 13.6559C8.6824 13.6559 7.2342 12.7811 6.2084 11.3133C4.5194 8.95447 4.1378 7.23607 4.1378 7.01807C4.1378 6.86547 4.014 6.74147 3.8612 6.74147C3.0376 6.71607 4.2882 9.58107 5.7566 11.6321C6.8842 13.2453 8.5018 14.2083 10.084 14.2083C10.8264 14.2083 11.3208 14.0731 11.3208 13.4133V12.2035C11.3322 12.0535 11.2948 12.0085 11.3996 12.0191Z" fill="white"/>
<path d="M6.5302 7.04522C6.4044 6.71242 6.2236 6.35742 5.6664 6.35742H4.5314C4.1702 6.36342 4.166 6.90382 4.5314 6.91062H5.6664C5.8384 6.91062 5.8932 6.92462 6.0096 7.23222C6.5348 8.77642 7.7202 11.0108 8.4898 11.0108C9.0162 11.0108 9.0162 10.4804 9.0162 10.2254L9.0156 8.22962C8.871 6.49402 7.2122 6.97482 10.7406 6.91742C10.7452 6.92542 10.7678 6.97142 10.7678 7.12382C10.7728 7.48702 11.3154 7.48722 11.321 7.12382C11.321 6.61542 11.0988 6.35762 10.6604 6.35762H8.5474C7.8856 6.38382 7.7658 7.07522 8.1484 7.44242C8.282 7.60902 8.4336 7.79762 8.463 8.24742C8.459 8.34682 8.4736 10.4082 8.4526 10.4372C8.1232 10.2454 7.1718 8.93162 6.5302 7.04522Z" fill="white"/>
</g>
<defs>
<clipPath id="clip0_7_70">
<rect width="20" height="20" fill="white"/>
</clipPath>
</defs>
</svg>
